<?xml version="1.0" encoding="UTF-8"?>
<svg id="uuid-81e6b6d4-2d03-4fc5-b438-bc32d36cc8a3" data-name="Layer 2" xmlns="http://www.w3.org/2000/svg" xmlns:xlink="http://www.w3.org/1999/xlink" viewBox="0 0 2560.23 1587.36">
  <defs>
    <style>
      .uuid-f95e4127-4d16-4652-a44c-8ef3d0d78a31 {
        fill: #fff;
      }

      .uuid-94e7a922-91d6-4439-b4e2-2cea033a0170 {
        fill: #fc476a;
      }

      .uuid-f03cf08b-b52c-41d2-8a3d-2ccdef4a7194 {
        clip-path: url(#uuid-f9598a72-a7eb-4214-8d1d-06b1d0158042);
      }

      .uuid-8b2baeca-b037-4da3-9687-7dd69ce598a5 {
        clip-path: url(#uuid-6891bee5-4056-4a2e-9376-a0b3aa85cedf);
      }

      .uuid-b3f193c3-3d20-437d-8634-a70366b68486 {
        fill: #f6f9ff;
      }

      .uuid-32874be0-1255-4450-b03d-d09ba0e2cb6b {
        clip-path: url(#uuid-267b12d9-8e1f-4090-a106-916c67375197);
      }

      .uuid-cdc79a2c-62b2-40d2-9470-ae2e8a1306ca {
        fill: #d4dfff;
      }

      .uuid-0898081a-ec39-42c0-b1a6-c0dac50971fa {
        clip-path: url(#uuid-e39baf8e-668a-4299-97c7-a3bf5723d44c);
      }

      .uuid-0128713f-6a6c-4249-b479-db80f17cf82a {
        fill: #1c056d;
      }

      .uuid-f9a1f20a-2747-412a-a5c9-e3178040a8a7 {
        clip-path: url(#uuid-d775887c-44bb-4aec-a95a-b38e77ac9648);
      }

      .uuid-c0da973e-3d3e-4f82-b3dc-9557891c3b65 {
        clip-path: url(#uuid-23a1b529-6c74-430d-8384-84f0e90df1bb);
      }

      .uuid-e0546fe3-1877-4083-a3e2-6e7def1e22fb {
        fill: #d40221;
      }

      .uuid-6baeb316-e030-4957-981c-fd6e03cb8b40 {
        clip-path: url(#uuid-a85ddd67-8f1c-46d2-822f-d2099518b382);
      }

      .uuid-144bb722-868e-4b66-8ec4-d7fb543eda1f {
        clip-path: url(#uuid-e9dafd79-ee09-41f1-be36-b3250e67d7cd);
      }

      .uuid-964c6f7f-59b1-4a41-8f09-c91b847e16d6, .uuid-a2c79bb9-50b6-4d52-b9a5-5c4e63899bc5, .uuid-28b3cf0f-997e-49a8-bc47-23195b4c30cc {
        fill: #6880e4;
      }

      .uuid-ca5eb253-8fa0-40cd-b571-0eed676c07cc {
        fill: #fe8e9c;
      }

      .uuid-061698f3-375b-43d6-b0a5-e4983f4e7ea2 {
        clip-path: url(#uuid-e47c1469-1da7-4106-8c63-3eb343fe543d);
      }

      .uuid-1bab6931-e13e-411a-b7ee-79b2655cff57 {
        clip-path: url(#uuid-c4067677-68d5-472d-80e7-e0dbf7092e37);
      }

      .uuid-e0924c22-8321-4bfb-9d36-524a1b3baf30 {
        fill: #e57492;
      }

      .uuid-2a397155-dd8f-4362-9d16-ecbf1059bf13 {
        opacity: .54;
      }

      .uuid-2a397155-dd8f-4362-9d16-ecbf1059bf13, .uuid-eeab5766-6602-4a32-b7aa-ca1fbbe577f2 {
        fill: #1b3d9e;
      }

      .uuid-a2c79bb9-50b6-4d52-b9a5-5c4e63899bc5 {
        opacity: .46;
      }

      .uuid-2cfd5fdf-b2e1-4aa6-a1bd-7bfacf2acf04 {
        clip-path: url(#uuid-c3d7ac73-5abc-4fa1-80ff-b1ac0565f8a6);
      }

      .uuid-28b3cf0f-997e-49a8-bc47-23195b4c30cc {
        opacity: .17;
      }
    </style>
    <clipPath id="uuid-e39baf8e-668a-4299-97c7-a3bf5723d44c">
      <path class="uuid-eeab5766-6602-4a32-b7aa-ca1fbbe577f2" d="M462.27,1582.24s-98.22-331.89-82.4-340.67c15.82-8.78,403.54-9.13,403.54-9.13,0,0-44.46,349.06-56.81,349.8-12.35,.74-231.63,1.51-264.33,0Z"/>
    </clipPath>
    <clipPath id="uuid-a85ddd67-8f1c-46d2-822f-d2099518b382">
      <path class="uuid-cdc79a2c-62b2-40d2-9470-ae2e8a1306ca" d="M688.1,514.27s-4.4,729.65,13.19,731.65,1299.51,9.97,1310.5,0c10.99-9.97,15.39-737.63,0-737.63s-1323.69,5.98-1323.69,5.98Z"/>
    </clipPath>
    <clipPath id="uuid-e47c1469-1da7-4106-8c63-3eb343fe543d">
      <rect class="uuid-eeab5766-6602-4a32-b7aa-ca1fbbe577f2" x="1955.81" y="1168.64" width="357.03" height="412.98" rx="12.08" ry="12.08"/>
    </clipPath>
    <clipPath id="uuid-e9dafd79-ee09-41f1-be36-b3250e67d7cd">
      <path class="uuid-94e7a922-91d6-4439-b4e2-2cea033a0170" d="M2050.18,1168.64s-4.74-339.97,1.58-343.92,54.49-7.9,58.43,1.58,0,342.34,0,342.34h-60.01Z"/>
    </clipPath>
    <clipPath id="uuid-267b12d9-8e1f-4090-a106-916c67375197">
      <path class="uuid-cdc79a2c-62b2-40d2-9470-ae2e8a1306ca" d="M2149.26,674.23h132.01c2.06,0,3.73,1.67,3.73,3.73v490.67h-139.48v-490.67c0-2.06,1.67-3.73,3.73-3.73Z"/>
    </clipPath>
    <clipPath id="uuid-c3d7ac73-5abc-4fa1-80ff-b1ac0565f8a6">
      <path class="uuid-ca5eb253-8fa0-40cd-b571-0eed676c07cc" d="M964.57,415.94l-52.98,6.85c-29.17-13.67-57.41-22.52-83.74-19.76-26.45,2.76-41.65,30.46-35.12,49.11,5.74,16.4,53.33,33.22,73.86,33.62,20.53,.39,51.72-4.34,63.17-14.5,.02-.01,.03-.03,.04-.05h34.76v-55.26Z"/>
    </clipPath>
    <clipPath id="uuid-d775887c-44bb-4aec-a95a-b38e77ac9648">
      <path class="uuid-eeab5766-6602-4a32-b7aa-ca1fbbe577f2" d="M911.59,422.8s-16.98,1.51-20.26,1.59c-11.89,.29-23.81,.94-23.81,.94,0,0-7.41-24.05-18.3-19.12-16,7.24,2.29,18.47,2.29,18.47,0,0-28.44-4.74-31.21-4.9-2.78-.16,21.28,50.59-4.39,66.01-25.67,15.42-54.27,7.29-57.84-32.68s37.37-78.31,75.06-77.01c37.69,1.3,78.47,46.71,78.47,46.71Z"/>
    </clipPath>
    <clipPath id="uuid-f9598a72-a7eb-4214-8d1d-06b1d0158042">
      <path class="uuid-ca5eb253-8fa0-40cd-b571-0eed676c07cc" d="M1031.3,787.85s-7.91,10.64-10.53,15.91c-2.61,5.27-3.46,31.6-2.91,31.51s6.4-.4,7.61-3.88l6.47-22.23s.44,23.84-.35,25.53c-.79,1.69-14.52,29.05-13.31,29.92,1.21,.87,6.41,4.04,10.46-2.78,4.05-6.82,13.63-24.47,14.81-27.29,1.18-2.82-18.76,37.2-17.96,37.52,.8,.32,5.91,2.97,7.93,.36,2.02-2.61,19.87-31.02,20.46-33.3,.59-2.29-11.12,27.22-10.51,27.21s2.95,3.02,6.14-1.01c3.19-4.03,13.92-25.66,14.43-26.8,.51-1.14,.35-14.92,.35-14.92,0,0,2.67,16.19,2.05,18.3s-5.54,14.37-3.26,14.8c1.73,.33,4.74-3,7.11-7.34,2.37-4.34,5.38-10.85,5.15-17.03s-11.61-40.77-11.61-40.77l-32.54-3.68Z"/>
    </clipPath>
    <clipPath id="uuid-23a1b529-6c74-430d-8384-84f0e90df1bb">
      <path class="uuid-eeab5766-6602-4a32-b7aa-ca1fbbe577f2" d="M1866.81,422.92s-339.36-27.84-409.84-42.64c-70.48-14.79-129.19,17.36-129.19,17.36v72.14s182.37,155.37,264.14,157.42c81.78,2.04,252.82-43.61,254.19-51.11,1.36-7.5,0-51.79-6.81-54.52-6.81-2.73-233.06,23.17-237.15,18.4-2.66-3.1-40.96-41.56-74.58-70.19h339.25v-46.86Z"/>
    </clipPath>
    <clipPath id="uuid-6891bee5-4056-4a2e-9376-a0b3aa85cedf">
      <path class="uuid-eeab5766-6602-4a32-b7aa-ca1fbbe577f2" d="M1874.3,524.8s5.8-9.26,16.65-10.77,14.37,0,14.37,0c0,0,29.12,78.9,23.83,80.57-5.28,1.67-17.23,1.95-20.85-1.39-3.61-3.34-31.03-41.48-31.03-41.48,0,0,1.77-20.63-2.98-26.93Z"/>
    </clipPath>
    <clipPath id="uuid-c4067677-68d5-472d-80e7-e0dbf7092e37">
      <path class="uuid-eeab5766-6602-4a32-b7aa-ca1fbbe577f2" d="M1899.59,444.84s3.95-9.92,15.48-10.55c11.54-.63,38.53,13.73,40.93,14.74,2.41,1.01,34.91,9.76,35.48,10.05,6.95,3.52,.76,11.82,.76,11.82l-90.53-1.07-2.13-24.99Z"/>
    </clipPath>
  </defs>
  <g id="uuid-f584d8e8-eee0-45a6-a677-761f1c617808" data-name="Layer 1">
    <path class="uuid-b3f193c3-3d20-437d-8634-a70366b68486" d="M823.71,1404.52c-108.75-32.29-213.43-74.26-304.1-132.1-391.64-249.86-305.56-828.64,1.77-1109.86C617.76,74.37,742.61,12.83,873.73,1.93c146.75-12.21,300.38,33.84,410.83,132.48,100.36,89.62,159.31,212.6,289.85,265.71,151.41,61.6,319.33,37.47,478.03,55.72,311.94,35.87,515.8,309.2,446.9,621.1-79.85,361.47-412.11,441.93-734.16,454.52-186.72,7.3-373.44-11.43-557.28-43.18-122.94-21.23-256.38-45.8-384.19-83.75Z"/>
    <g>
      <g>
        <g>
          <path class="uuid-cdc79a2c-62b2-40d2-9470-ae2e8a1306ca" d="M461.14,968.35c-15.96,14.02-39.73,18.49-59.7,11.23-19.97-7.26-35.31-25.95-38.54-46.95-3.8-24.71,6.71-54.4-10.75-72.28-8.77-8.99-22.72-12.07-30.16-22.19-6.24-8.5-6.38-19.87-6.26-30.42,.21-18.73,.41-37.45,.62-56.17-8.33-10.39-25.14-9.77-35.09-18.62-9.84-8.76-11.98-23.07-13.74-36.12-5.21-38.57-12.51-76.86-21.85-114.64,29.2,8.58,58.11,17.89,85.79,30.54,15.45,7.06,31.6,15.68,39.35,30.8,7.8,15.21,5.3,33.34,5.07,50.43-.08,5.52,.14,11.22,2.48,16.23,6.01,12.9,22.56,15.86,34.9,22.96,13.63,7.84,23.13,22.45,24.76,38.08,1.48,14.19-3.13,28.67-.45,42.68,5.94,31.07,43.17,45.41,58.04,73.32,15.55,29.19-9.61,59.32-34.46,81.14Z"/>
          <path class="uuid-0128713f-6a6c-4249-b479-db80f17cf82a" d="M537.76,1245.96c-.51,0-.96-.36-1.05-.88-5.86-33.92-26.33-125.61-61.89-229.89-26.1-76.53-56.33-148.86-89.83-214.99-41.88-82.64-89.03-155.77-140.15-217.35-.37-.45-.31-1.12,.14-1.5,.45-.37,1.12-.31,1.5,.14,51.22,61.71,98.47,134.98,140.42,217.77,33.55,66.22,63.82,138.65,89.95,215.28,35.6,104.39,56.1,196.21,61.96,230.17,.1,.58-.29,1.13-.87,1.23-.06,.01-.12,.02-.18,.02Z"/>
        </g>
        <g>
          <path class="uuid-cdc79a2c-62b2-40d2-9470-ae2e8a1306ca" d="M0,880.77c10.04,8.07,14.29,21.1,19.39,32.92s12.88,24.18,25.4,27.21c13.57,3.29,27.83-5.68,41.46-2.63,11.04,2.47,18.86,12.17,24.69,21.86,5.83,9.69,10.9,20.34,19.91,27.18,13.98,10.62,33.4,9.24,50.79,6.84s36.33-5.06,51.5,3.78c18.46,10.76,25.34,35.25,43.66,46.23,7.8,4.67,17,6.44,26.06,7.11,27,2.01,54.61-5.25,77.13-20.27-1.3-24.63-9.86-51.25-25.34-70.45-15.48-19.2-38.73-32.54-63.35-33.85-7.86-.42-15.8,.35-23.56-.95-32.61-5.43-49.56-43.29-79.78-56.7-12.84-5.7-27.77-6.53-41.16-2.3-13.11,4.14-24.81,12.92-38.48,14.37-13.36,1.42-26.25-4.37-39.18-8.01-24.8-6.97-44.9-1.1-69.13,7.64Z"/>
          <path class="uuid-0128713f-6a6c-4249-b479-db80f17cf82a" d="M528.62,1237.25c-.47,0-.91-.32-1.03-.8-15.52-60.69-50.27-118.84-100.47-168.16-43.14-42.38-98.54-79.08-164.67-109.07-71.15-32.27-153.23-56.74-258.31-77-.58-.11-.95-.67-.84-1.25,.11-.58,.67-.95,1.24-.84,105.25,20.3,187.48,44.81,258.79,77.15,66.35,30.09,121.96,66.93,165.28,109.49,50.48,49.6,85.42,108.09,101.04,169.15,.15,.57-.2,1.15-.77,1.29-.09,.02-.18,.03-.26,.03Z"/>
        </g>
        <path class="uuid-cdc79a2c-62b2-40d2-9470-ae2e8a1306ca" d="M570.43,879.69c-15.5,2.99-32.25-1.21-44.5-11.17-12.25-9.96-19.79-25.49-20.03-41.28-.18-11.99,3.6-23.67,7.72-34.94,1.41-3.85,2.89-7.88,2.38-11.95-.41-3.23-2.04-6.17-3.81-8.9-6.68-10.26-15.98-19.18-19.5-30.91-6.25-20.82,7.65-43.23,3.3-64.52-1.52-7.42-5.18-14.2-7.79-21.31-9.19-25.04-4.38-54.72,12.25-75.57,23.41,9.39,38.68,34.35,38.91,59.57,.12,12.57-3.34,25.89,2.01,37.27,3.2,6.8,9.11,11.85,14.66,16.93,9.71,8.89,19.08,19.08,22.51,31.79,5.39,19.97-4.93,42.01,1.76,61.58,6.64,19.42,28.28,30.98,34.15,50.64,1.57,5.27,1.9,10.85,1.46,16.34-.68,8.43-3.46,17.13-9.81,22.72-9.88,8.7-22.75,1.21-35.68,3.71Z"/>
        <path class="uuid-0128713f-6a6c-4249-b479-db80f17cf82a" d="M579.23,1242.48c-.55,0-1.01-.42-1.06-.97-4.59-53.96-3.33-109.18-2.11-162.59,1.68-73.88,3.43-150.27-10.39-223.9-7.14-38.08-18.57-75.97-29.61-112.61-15.37-50.97-31.26-103.68-35.8-157.56-.05-.59,.38-1.1,.97-1.15,.58-.05,1.1,.38,1.15,.97,4.52,53.66,20.38,106.26,35.72,157.13,11.06,36.69,22.5,74.64,29.67,112.83,13.86,73.85,12.11,150.35,10.42,224.34-1.22,53.35-2.47,108.52,2.11,162.36,.05,.58-.38,1.1-.97,1.15-.03,0-.06,0-.09,0Z"/>
      </g>
      <g>
        <path class="uuid-eeab5766-6602-4a32-b7aa-ca1fbbe577f2" d="M462.27,1582.24s-98.22-331.89-82.4-340.67c15.82-8.78,403.54-9.13,403.54-9.13,0,0-44.46,349.06-56.81,349.8-12.35,.74-231.63,1.51-264.33,0Z"/>
        <g class="uuid-0898081a-ec39-42c0-b1a6-c0dac50971fa">
          <path class="uuid-0128713f-6a6c-4249-b479-db80f17cf82a" d="M558,1206.76s-113.43,144.91-106.98,148.78c6.44,3.87,325.08,69.6,324.95,65.74-.13-3.87,32.4-188.84,32.4-188.84l-250.37-25.67Z"/>
        </g>
      </g>
    </g>
    <g>
      <g>
        <g>
          <rect class="uuid-eeab5766-6602-4a32-b7aa-ca1fbbe577f2" x="1212.62" y="1297.19" width="277.43" height="235.77"/>
          <rect class="uuid-0128713f-6a6c-4249-b479-db80f17cf82a" x="1107" y="1532.96" width="495.37" height="50.15" rx="20.85" ry="20.85"/>
        </g>
        <path class="uuid-964c6f7f-59b1-4a41-8f09-c91b847e16d6" d="M654.27,474.95c.59-1.17,1.78-1.91,3.09-1.91,55.95-.38,1341.22-8.93,1398.16,.01,22.45,3.53,16.87,858.08,0,890.73-12.4,24.01-1384.11,2.9-1400.05,0-19.65-3.57-29.38-832.69-1.21-888.83Z"/>
        <g>
          <path class="uuid-cdc79a2c-62b2-40d2-9470-ae2e8a1306ca" d="M688.1,514.27s-4.4,729.65,13.19,731.65,1299.51,9.97,1310.5,0c10.99-9.97,15.39-737.63,0-737.63s-1323.69,5.98-1323.69,5.98Z"/>
          <g class="uuid-6baeb316-e030-4957-981c-fd6e03cb8b40">
            <polygon class="uuid-a2c79bb9-50b6-4d52-b9a5-5c4e63899bc5" points="1530.03 491.73 1031.84 1265.21 663.59 1265.21 688.1 514.27 1530.03 491.73"/>
            <polygon class="uuid-a2c79bb9-50b6-4d52-b9a5-5c4e63899bc5" points="1145.57 1271.52 1624.4 487.58 1834.52 487.58 1373.2 1267.42 1145.57 1271.52"/>
            <polygon class="uuid-a2c79bb9-50b6-4d52-b9a5-5c4e63899bc5" points="1923.39 490.49 1459.79 1272.19 1746.97 1268.56 2055.37 700.94 2049.15 495.43 1923.39 490.49"/>
          </g>
        </g>
      </g>
      <circle class="uuid-eeab5766-6602-4a32-b7aa-ca1fbbe577f2" cx="1351.33" cy="1319.34" r="33.72" transform="translate(-402.03 617.56) rotate(-22.5)"/>
      <g>
        <path class="uuid-f95e4127-4d16-4652-a44c-8ef3d0d78a31" d="M1033.32,829.52c1.65-7.72,4.89-13.58,9.72-17.58,4.82-3.99,10.13-6.06,15.92-6.2,5.79-.14,11.3,1.59,16.54,5.17,5.23,3.59,8.96,9.1,11.17,16.54,.27,17.92,.41,35.64,.41,53.14s.27,35.09,.83,52.73c12.13,0,23.91-.14,35.36-.41,11.44-.27,22.4-.41,32.88-.41,7.44,2.21,12.96,5.72,16.54,10.55,3.58,4.83,5.31,9.86,5.17,15.09-.14,5.24-2.21,10.07-6.2,14.47-4,4.41-9.86,7.44-17.58,9.1-10.75,0-21.5,.07-32.26,.21-10.75,.14-21.5,.07-32.26-.21,.55,13.79,.89,28.74,1.03,44.87,.14,16.13,.34,31.09,.62,44.87-.56,9.1-3.52,15.86-8.89,20.26-5.38,4.41-11.37,6.62-17.99,6.62s-12.89-2.27-18.82-6.82c-5.93-4.55-9.45-11.23-10.55-20.06-.28-14.06-.07-28.88,.62-44.45,.68-15.57,.76-30.39,.21-44.46-11.86-.27-24.61-.89-38.25-1.86-13.65-.96-26.88-2.96-39.7-6-12.82-3.03-24.61-7.3-35.36-12.82-10.75-5.51-19.44-12.82-26.05-21.92-6.07-8.54-9.51-17.78-10.34-27.71-.83-9.92,.14-20.12,2.89-30.6,2.75-10.47,6.89-21.09,12.41-31.84,5.51-10.75,11.51-21.09,17.99-31.02,6.47-9.92,12.96-19.23,19.44-27.91,6.47-8.68,12.2-16.33,17.16-22.95,11.02-14.89,22.33-29.36,33.91-43.42,11.58-14.06,23.16-28.26,34.74-42.59,6.06-4.96,12.33-7.51,18.82-7.65,6.47-.14,12.06,1.45,16.75,4.76,4.68,3.31,7.92,8,9.72,14.06,1.79,6.07,1.3,12.82-1.45,20.26-9.38,11.58-20.41,24.75-33.08,39.49-12.68,14.75-25.16,30.19-37.43,46.32-12.27,16.13-23.44,32.53-33.5,49.21-10.07,16.68-17.16,32.88-21.3,48.59-1.65,5.52-1.03,10.27,1.86,14.27,2.89,4,7.17,7.31,12.82,9.92,5.65,2.62,12.2,4.76,19.64,6.41,7.44,1.65,14.82,2.89,22.12,3.72,7.3,.83,14.06,1.45,20.26,1.86,6.2,.41,10.96,.76,14.27,1.03-.56-17.37-.83-34.8-.83-52.31v-52.31Z"/>
        <path class="uuid-f95e4127-4d16-4652-a44c-8ef3d0d78a31" d="M1233.89,1020.16c-3.59-11.85-7.17-26.67-10.75-44.46-3.59-17.78-6.27-37.01-8.06-57.69-1.8-20.68-2.42-41.9-1.86-63.68,.55-21.78,2.96-42.59,7.24-62.44,4.27-19.85,10.82-37.9,19.64-54.17,8.82-16.26,20.54-29.08,35.15-38.46,18.2-11.58,36.94-19.85,56.24-24.81,19.29-4.96,38.18-6.89,56.65-5.79,18.47,1.11,36.04,5.03,52.73,11.79,16.68,6.76,31.29,15.92,43.83,27.5,12.54,11.58,22.6,25.5,30.19,41.77,7.58,16.27,11.64,34.47,12.2,54.59,.27,19.02,.96,39.36,2.07,61,1.1,21.65,1.17,43.36,.21,65.13-.97,21.78-3.79,42.8-8.48,63.06-4.69,20.26-12.41,38.53-23.16,54.79-9.1,13.79-21.3,24.95-36.6,33.5-15.3,8.55-31.84,14.55-49.62,17.99-17.78,3.44-36.05,4.34-54.79,2.69-18.75-1.65-36.33-5.85-52.73-12.61-16.41-6.75-30.88-15.92-43.42-27.5-12.55-11.58-21.44-25.64-26.67-42.18Zm69.06-273.35c-7.17,5.52-13.58,13.58-19.23,24.19-5.65,10.62-8.89,21.85-9.72,33.7-1.11,16.54-2.21,33.29-3.31,50.24-1.1,16.95-1.52,33.7-1.24,50.24,.27,16.54,1.65,32.81,4.14,48.8,2.48,15.99,7.03,31.29,13.65,45.9,4.13,9.65,10.27,17.78,18.4,24.4,8.13,6.62,17.23,11.72,27.29,15.3,10.06,3.59,20.74,5.58,32.05,6,11.3,.41,22.33-.68,33.08-3.31,10.75-2.62,20.88-6.82,30.4-12.61,9.51-5.79,17.57-13.23,24.19-22.33,4.68-5.79,8.48-13.85,11.37-24.19,2.89-10.34,5.03-21.85,6.41-34.53,1.38-12.68,2.2-25.77,2.48-39.29,.27-13.5,.27-26.32,0-38.46-.28-12.13-.56-22.95-.83-32.46-.28-9.51-.41-16.47-.41-20.88,.27-13.23-1.86-25.57-6.41-37.01-4.55-11.44-10.82-21.43-18.82-29.98-8-8.54-17.44-15.44-28.33-20.68-10.89-5.23-22.61-8.27-35.15-9.1-12.55-.83-25.64,.83-39.29,4.96-13.65,4.14-27.23,11.17-40.73,21.09Z"/>
        <path class="uuid-f95e4127-4d16-4652-a44c-8ef3d0d78a31" d="M1722.27,829.52c1.65-7.72,4.89-13.58,9.72-17.58,4.82-3.99,10.13-6.06,15.92-6.2,5.79-.14,11.3,1.59,16.54,5.17,5.23,3.59,8.96,9.1,11.17,16.54,.27,17.92,.41,35.64,.41,53.14s.27,35.09,.83,52.73c12.13,0,23.91-.14,35.36-.41,11.44-.27,22.4-.41,32.88-.41,7.44,2.21,12.96,5.72,16.54,10.55,3.58,4.83,5.31,9.86,5.17,15.09-.14,5.24-2.21,10.07-6.2,14.47-4,4.41-9.86,7.44-17.58,9.1-10.75,0-21.5,.07-32.26,.21-10.75,.14-21.5,.07-32.26-.21,.55,13.79,.89,28.74,1.03,44.87,.14,16.13,.34,31.09,.62,44.87-.56,9.1-3.52,15.86-8.89,20.26-5.38,4.41-11.37,6.62-17.99,6.62s-12.89-2.27-18.82-6.82c-5.93-4.55-9.45-11.23-10.55-20.06-.28-14.06-.07-28.88,.62-44.45,.68-15.57,.76-30.39,.21-44.46-11.86-.27-24.61-.89-38.25-1.86-13.65-.96-26.88-2.96-39.7-6-12.82-3.03-24.61-7.3-35.36-12.82-10.75-5.51-19.44-12.82-26.05-21.92-6.07-8.54-9.51-17.78-10.34-27.71-.83-9.92,.14-20.12,2.89-30.6,2.75-10.47,6.89-21.09,12.41-31.84,5.51-10.75,11.51-21.09,17.99-31.02,6.47-9.92,12.96-19.23,19.44-27.91,6.47-8.68,12.2-16.33,17.16-22.95,11.02-14.89,22.33-29.36,33.91-43.42,11.58-14.06,23.16-28.26,34.74-42.59,6.06-4.96,12.33-7.51,18.82-7.65,6.47-.14,12.06,1.45,16.75,4.76,4.68,3.31,7.92,8,9.72,14.06,1.79,6.07,1.3,12.82-1.45,20.26-9.38,11.58-20.41,24.75-33.08,39.49-12.68,14.75-25.16,30.19-37.43,46.32-12.27,16.13-23.44,32.53-33.5,49.21-10.07,16.68-17.16,32.88-21.3,48.59-1.65,5.52-1.03,10.27,1.86,14.27,2.89,4,7.17,7.31,12.82,9.92,5.65,2.62,12.2,4.76,19.64,6.41,7.44,1.65,14.82,2.89,22.12,3.72,7.3,.83,14.06,1.45,20.26,1.86,6.2,.41,10.96,.76,14.27,1.03-.56-17.37-.83-34.8-.83-52.31v-52.31Z"/>
      </g>
      <g>
        <path class="uuid-2a397155-dd8f-4362-9d16-ecbf1059bf13" d="M952.66,1369.46l-132.59-372.76,33.67,5.41c1.9,.31,3.49,1.62,4.15,3.43l132.69,364.28c.03,.08-.03,.17-.12,.17l-37.8-.52Z"/>
        <g>
          <path class="uuid-94e7a922-91d6-4439-b4e2-2cea033a0170" d="M526.4,1385.29c5.6-.99,280.68-391.45,293.66-388.59s164.14,461.73,158.52,460.84-466.1-69.78-452.19-72.25Z"/>
          <path class="uuid-f95e4127-4d16-4652-a44c-8ef3d0d78a31" d="M777.3,1322.14c-2.14,1.92-4.3,3.16-6.51,3.72-2.2,.57-4.31,.55-6.33-.06-2.02-.6-3.84-1.74-5.48-3.41-1.64-1.67-2.88-3.84-3.72-6.51,1.34-16.4,2.37-33.07,3.08-50,.72-16.93,1.63-33.75,2.74-50.48,1.1-16.72,2.7-33.19,4.79-49.41,2.08-16.22,5.16-31.82,9.23-46.81,.33-1.22,1.45-2.3,3.37-3.27,1.91-.96,4.24-1.65,6.98-2.06,2.74-.41,5.72-.57,8.95-.48,3.22,.09,6.33,.48,9.32,1.16,2.99,.69,5.64,1.71,7.96,3.06,2.32,1.36,4.01,3.1,5.08,5.24,1.73,2.39,2.77,6.5,3.11,12.33,.34,5.83,.21,12.85-.39,21.06-.6,8.22-1.7,17.34-3.29,27.36-1.59,10.03-3.48,20.33-5.65,30.9-2.17,10.57-4.56,21.18-7.17,31.82-2.61,10.64-5.37,20.7-8.28,30.16-2.91,9.47-5.83,18.09-8.76,25.86-2.92,7.77-5.75,14.05-8.48,18.83-.02,.14-.21,.46-.58,.96Zm-28.48,62.23c-3.01-2.31-5.44-4.98-7.28-8.02-1.84-3.04-2.9-6.13-3.17-9.27-.28-3.14,.38-6.21,1.99-9.19,1.6-2.99,4.27-5.59,8-7.81,5.14-3.13,10.3-4.32,15.46-3.56,5.16,.75,9.14,3.88,11.92,9.39,2.62,4.78,3.88,9.94,3.77,15.49-.11,5.55-2.52,10.34-7.25,14.38-3.45,3.11-7.35,4.39-11.7,3.85-4.35-.55-8.26-2.3-11.74-5.24Z"/>
        </g>
      </g>
    </g>
    <g>
      <g>
        <rect class="uuid-eeab5766-6602-4a32-b7aa-ca1fbbe577f2" x="1955.81" y="1168.64" width="357.03" height="412.98" rx="12.08" ry="12.08"/>
        <g class="uuid-061698f3-375b-43d6-b0a5-e4983f4e7ea2">
          <path class="uuid-0128713f-6a6c-4249-b479-db80f17cf82a" d="M2322.89,1227.12s-139.84,196.9-392.92,251.4v120.52h401.74s10.49-364.87-8.82-371.92Z"/>
        </g>
      </g>
      <g>
        <path class="uuid-94e7a922-91d6-4439-b4e2-2cea033a0170" d="M2050.18,1168.64s-4.74-339.97,1.58-343.92,54.49-7.9,58.43,1.58,0,342.34,0,342.34h-60.01Z"/>
        <g class="uuid-144bb722-868e-4b66-8ec4-d7fb543eda1f">
          <polygon class="uuid-e0546fe3-1877-4083-a3e2-6e7def1e22fb" points="2091.49 873.21 2091.49 1175.34 2068.94 1175.34 2068.94 873.82 2091.49 873.21"/>
          <path class="uuid-cdc79a2c-62b2-40d2-9470-ae2e8a1306ca" d="M2039.11,886.27s70.09-5.32,79.86-.43c0,0-.49-69.86-4.4-71.32-3.91-1.47-70.83-1.84-72.3,5.92-1.47,7.76-3.16,65.84-3.16,65.84Z"/>
        </g>
      </g>
      <g>
        <path class="uuid-cdc79a2c-62b2-40d2-9470-ae2e8a1306ca" d="M2149.26,674.23h132.01c2.06,0,3.73,1.67,3.73,3.73v490.67h-139.48v-490.67c0-2.06,1.67-3.73,3.73-3.73Z"/>
        <g class="uuid-32874be0-1255-4450-b03d-d09ba0e2cb6b">
          <rect class="uuid-a2c79bb9-50b6-4d52-b9a5-5c4e63899bc5" x="2134.33" y="656.16" width="47.85" height="530.48"/>
          <rect class="uuid-964c6f7f-59b1-4a41-8f09-c91b847e16d6" x="2145.52" y="712.16" width="17.57" height="6.12"/>
          <rect class="uuid-964c6f7f-59b1-4a41-8f09-c91b847e16d6" x="2145.52" y="740.34" width="17.57" height="6.12"/>
          <rect class="uuid-964c6f7f-59b1-4a41-8f09-c91b847e16d6" x="2145.52" y="768.52" width="17.57" height="6.12"/>
          <rect class="uuid-964c6f7f-59b1-4a41-8f09-c91b847e16d6" x="2145.52" y="796.71" width="17.57" height="6.12"/>
          <rect class="uuid-964c6f7f-59b1-4a41-8f09-c91b847e16d6" x="2145.52" y="824.89" width="17.57" height="6.12"/>
          <rect class="uuid-964c6f7f-59b1-4a41-8f09-c91b847e16d6" x="2145.52" y="853.08" width="17.57" height="6.12"/>
          <rect class="uuid-964c6f7f-59b1-4a41-8f09-c91b847e16d6" x="2145.52" y="881.26" width="17.57" height="6.12"/>
          <rect class="uuid-964c6f7f-59b1-4a41-8f09-c91b847e16d6" x="2145.52" y="909.44" width="17.57" height="6.12"/>
          <rect class="uuid-964c6f7f-59b1-4a41-8f09-c91b847e16d6" x="2145.52" y="937.63" width="17.57" height="6.12"/>
          <rect class="uuid-964c6f7f-59b1-4a41-8f09-c91b847e16d6" x="2145.52" y="965.81" width="17.57" height="6.12"/>
          <rect class="uuid-964c6f7f-59b1-4a41-8f09-c91b847e16d6" x="2145.52" y="993.99" width="17.57" height="6.12"/>
          <rect class="uuid-964c6f7f-59b1-4a41-8f09-c91b847e16d6" x="2145.52" y="1022.18" width="17.57" height="6.12"/>
          <rect class="uuid-964c6f7f-59b1-4a41-8f09-c91b847e16d6" x="2145.52" y="1050.36" width="17.57" height="6.12"/>
          <rect class="uuid-964c6f7f-59b1-4a41-8f09-c91b847e16d6" x="2145.52" y="1078.55" width="17.57" height="6.12"/>
          <rect class="uuid-964c6f7f-59b1-4a41-8f09-c91b847e16d6" x="2145.52" y="1106.73" width="17.57" height="6.12"/>
          <rect class="uuid-964c6f7f-59b1-4a41-8f09-c91b847e16d6" x="2145.52" y="1134.91" width="17.57" height="6.12"/>
          <path class="uuid-28b3cf0f-997e-49a8-bc47-23195b4c30cc" d="M2254.83,655.57c-38.7,33.16-52.28,92.46-31.85,139.15,9.72,22.22,26.34,42.04,29.46,66.09,3.02,23.33-7.24,46.03-15.36,68.12-8,21.76-14.16,44.76-12.53,67.89,2.66,37.83,25.86,73.22,22.07,110.95-3.64,36.24-31.83,67.79-30.2,104.18,.46,0-.49,1.6-.02,1.6h90.62l-.04-560.3,11.15,.11-63.29,2.21Z"/>
        </g>
      </g>
    </g>
    <path class="uuid-0128713f-6a6c-4249-b479-db80f17cf82a" d="M2555.98,1587.36H266.47c-2.35,0-4.25-1.9-4.25-4.25s1.9-4.25,4.25-4.25H2555.98c2.35,0,4.25,1.9,4.25,4.25s-1.9,4.25-4.25,4.25Z"/>
    <g>
      <g>
        <g>
          <path class="uuid-ca5eb253-8fa0-40cd-b571-0eed676c07cc" d="M964.57,415.94l-52.98,6.85c-29.17-13.67-57.41-22.52-83.74-19.76-26.45,2.76-41.65,30.46-35.12,49.11,5.74,16.4,53.33,33.22,73.86,33.62,20.53,.39,51.72-4.34,63.17-14.5,.02-.01,.03-.03,.04-.05h34.76v-55.26Z"/>
          <g class="uuid-2cfd5fdf-b2e1-4aa6-a1bd-7bfacf2acf04">
            <path class="uuid-e0924c22-8321-4bfb-9d36-524a1b3baf30" d="M848.16,488.28s10.19-19.92,9.73-35.22c-.46-15.29-21.48-39.12-21.48-39.12l-17.44,.89s5.69,55.84,.64,65.68c-5.05,9.85,0,0,0,0l28.55,7.76Z"/>
          </g>
        </g>
        <path class="uuid-e0924c22-8321-4bfb-9d36-524a1b3baf30" d="M929.76,471.25s10.49-16.11-13.89-32.37c0,0,21.75,3.52,29.22,18.02,7.47,14.5,5.93,14.72,5.93,14.72l-21.26-.37Z"/>
      </g>
      <g>
        <path class="uuid-eeab5766-6602-4a32-b7aa-ca1fbbe577f2" d="M911.59,422.8s-16.98,1.51-20.26,1.59c-11.89,.29-23.81,.94-23.81,.94,0,0-7.41-24.05-18.3-19.12-16,7.24,2.29,18.47,2.29,18.47,0,0-28.44-4.74-31.21-4.9-2.78-.16,21.28,50.59-4.39,66.01-25.67,15.42-54.27,7.29-57.84-32.68s37.37-78.31,75.06-77.01c37.69,1.3,78.47,46.71,78.47,46.71Z"/>
        <g class="uuid-f9a1f20a-2747-412a-a5c9-e3178040a8a7">
          <path class="uuid-0128713f-6a6c-4249-b479-db80f17cf82a" d="M794.08,493.08s19.54-16.37,18.58-34.46c-.97-18.09-6.8-46.42-3.93-48.3,2.87-1.88,32.97,10.13,32.97,10.13,0,0-5.54-8.13,4.11-12.29,9.66-4.16,0,0,0,0,0,0,15.3,16.75,14.22,18.5-1.08,1.76-36.23-1.76-36.23-1.76,0,0,13.79,33.86,3.92,53.87-9.87,20.01-33.63,14.3-33.63,14.3"/>
        </g>
      </g>
      <path class="uuid-b3f193c3-3d20-437d-8634-a70366b68486" d="M910.48,471.63s-8.09-2.32-8.09-16.37,0-1.4,0-1.4c0,0,8.22,14.95,8.09,17.77Z"/>
      <path class="uuid-e0924c22-8321-4bfb-9d36-524a1b3baf30" d="M844.7,454.49s32.27,17.55,35.29,15.68-2.45-21.55-2.45-21.55c0,0,3.49-.23,4.31,2.91,.82,3.14,5.36,21.66,0,22.01s-31.92-12.73-37.16-19.06Z"/>
      <g>
        <path class="uuid-ca5eb253-8fa0-40cd-b571-0eed676c07cc" d="M1031.3,787.85s-7.91,10.64-10.53,15.91c-2.61,5.27-3.46,31.6-2.91,31.51s6.4-.4,7.61-3.88l6.47-22.23s.44,23.84-.35,25.53c-.79,1.69-14.52,29.05-13.31,29.92,1.21,.87,6.41,4.04,10.46-2.78,4.05-6.82,13.63-24.47,14.81-27.29,1.18-2.82-18.76,37.2-17.96,37.52,.8,.32,5.91,2.97,7.93,.36,2.02-2.61,19.87-31.02,20.46-33.3,.59-2.29-11.12,27.22-10.51,27.21s2.95,3.02,6.14-1.01c3.19-4.03,13.92-25.66,14.43-26.8,.51-1.14,.35-14.92,.35-14.92,0,0,2.67,16.19,2.05,18.3s-5.54,14.37-3.26,14.8c1.73,.33,4.74-3,7.11-7.34,2.37-4.34,5.38-10.85,5.15-17.03s-11.61-40.77-11.61-40.77l-32.54-3.68Z"/>
        <g class="uuid-f03cf08b-b52c-41d2-8a3d-2ccdef4a7194">
          <path class="uuid-e0924c22-8321-4bfb-9d36-524a1b3baf30" d="M1014.81,812.99c.5,1.8,24.75-11.65,57.79-6.49,0,0-4.45-20.06-8.05-21.87-3.6-1.8-31.96-1.8-36.28,.24-4.33,2.04-15.74,19.82-13.46,28.11Z"/>
        </g>
      </g>
      <g>
        <path class="uuid-94e7a922-91d6-4439-b4e2-2cea033a0170" d="M1327.78,393c0-2.12-1.52-3.94-3.61-4.31l-171.89-30.91c-144.19-12.33-187.71,51.49-187.71,51.49v61.97l16.87-.07c12.49,36.47,48.02,140.99,51.64,159.98,4.4,23.08-23.97,162.06-21.03,163.91,2.94,1.84,66.62,9.68,72.5,8.7,5.88-.98,35.27-154.04,33.31-172.54-1.5-14.2-5.9-111.6-16.72-160.52l226.64-.9v-76.79Z"/>
        <path class="uuid-e0546fe3-1877-4083-a3e2-6e7def1e22fb" d="M1101.14,470.69s-4.29-22.73-23.36-38.5c0,0,101.89,20.38,131.47,22.35,29.58,1.97,118.53-5.85,118.53-5.85v21.1l-226.64,.9Z"/>
      </g>
      <path class="uuid-e0924c22-8321-4bfb-9d36-524a1b3baf30" d="M1838.9,531.87s35.83-8.51,36.72-6.87c.9,1.64,5.97,18.06,4.03,24.03-1.94,5.97-37.17,18.81-37.17,18.81l-3.58-35.98Z"/>
      <g>
        <path class="uuid-eeab5766-6602-4a32-b7aa-ca1fbbe577f2" d="M1866.81,422.92s-339.36-27.84-409.84-42.64c-70.48-14.79-129.19,17.36-129.19,17.36v72.14s182.37,155.37,264.14,157.42c81.78,2.04,252.82-43.61,254.19-51.11,1.36-7.5,0-51.79-6.81-54.52-6.81-2.73-233.06,23.17-237.15,18.4-2.66-3.1-40.96-41.56-74.58-70.19h339.25v-46.86Z"/>
        <g class="uuid-c0da973e-3d3e-4f82-b3dc-9557891c3b65">
          <path class="uuid-0128713f-6a6c-4249-b479-db80f17cf82a" d="M1608.59,586.26c-1.2,0-2.16-.04-2.92-.13-.19-.02-.38-.05-.58-.08-.87-.15-1.45-.98-1.3-1.84,.15-.87,.98-1.45,1.84-1.3,.13,.02,.26,.04,.38,.06,1.01,.11,2.59,.13,4.6,.07,.89-.03,1.62,.66,1.64,1.54,.03,.88-.66,1.62-1.54,1.64-.77,.02-1.48,.04-2.13,.04Zm7.41-.32c-.83,0-1.53-.64-1.59-1.48-.06-.88,.6-1.64,1.48-1.7,1.62-.11,3.38-.26,5.29-.43,.87-.08,1.65,.57,1.73,1.45,.08,.88-.57,1.65-1.45,1.73-1.93,.17-3.71,.32-5.35,.43-.04,0-.08,0-.11,0Zm10.63-.93c-.81,0-1.5-.61-1.58-1.43-.09-.88,.55-1.66,1.43-1.75,1.69-.17,3.45-.36,5.29-.56,.87-.09,1.66,.54,1.76,1.41,.09,.88-.54,1.66-1.41,1.76-1.85,.2-3.62,.39-5.31,.56-.05,0-.11,0-.16,0Zm-26.31-.6c-.21,0-.42-.04-.62-.13-1.44-.61-3.1-1.38-4.93-2.3-.79-.39-1.11-1.35-.71-2.14,.39-.79,1.35-1.1,2.14-.71,1.77,.89,3.37,1.63,4.75,2.22,.81,.34,1.19,1.28,.85,2.09-.26,.61-.85,.97-1.47,.97Zm36.91-.55c-.8,0-1.49-.6-1.58-1.41-.1-.87,.53-1.67,1.4-1.77,1.71-.2,3.47-.4,5.28-.62,.87-.11,1.67,.52,1.77,1.39,.1,.87-.52,1.67-1.39,1.77-1.81,.22-3.58,.43-5.3,.62-.06,0-.12,.01-.18,.01Zm10.58-1.27c-.79,0-1.48-.59-1.58-1.4-.11-.87,.51-1.67,1.39-1.78,1.72-.21,3.48-.43,5.28-.66,.87-.11,1.67,.51,1.78,1.38,.11,.87-.51,1.67-1.38,1.78-1.8,.23-3.56,.45-5.29,.66-.07,0-.13,.01-.2,.01Zm10.56-1.34c-.79,0-1.47-.59-1.58-1.39-.11-.87,.5-1.67,1.38-1.79,1.73-.23,3.49-.46,5.28-.69,.87-.11,1.67,.5,1.79,1.37,.12,.87-.5,1.67-1.37,1.79-1.79,.24-3.55,.47-5.28,.69-.07,0-.14,.01-.21,.01Zm10.56-1.4c-.79,0-1.47-.58-1.58-1.38-.12-.87,.5-1.67,1.37-1.79l5.27-.71c.87-.13,1.68,.49,1.8,1.36,.12,.87-.49,1.68-1.37,1.79l-5.28,.71c-.07,0-.14,.01-.21,.01Zm-78.17-.18c-.26,0-.52-.06-.76-.19-1.48-.81-3.05-1.68-4.69-2.61-.76-.44-1.03-1.41-.6-2.17,.43-.76,1.41-1.03,2.17-.6,1.62,.92,3.16,1.78,4.63,2.58,.77,.42,1.06,1.39,.64,2.16-.29,.53-.84,.83-1.4,.83Zm88.72-1.26c-.78,0-1.47-.58-1.58-1.38-.12-.87,.49-1.68,1.36-1.8l5.27-.73c.87-.12,1.68,.49,1.8,1.36,.12,.87-.49,1.68-1.36,1.8l-5.27,.73c-.07,.01-.15,.02-.22,.02Zm10.54-1.47c-.78,0-1.46-.58-1.58-1.37-.12-.87,.49-1.68,1.36-1.8l5.27-.75c.86-.13,1.68,.48,1.8,1.35,.12,.87-.48,1.68-1.35,1.8l-5.27,.75c-.08,.01-.15,.02-.22,.02Zm10.54-1.5c-.78,0-1.46-.57-1.58-1.37-.12-.87,.48-1.68,1.35-1.8l5.26-.76c.88-.12,1.68,.48,1.81,1.35,.13,.87-.48,1.68-1.35,1.81l-5.27,.76c-.08,.01-.15,.02-.23,.02Zm-119.07-1.03c-.27,0-.55-.07-.81-.22-1.48-.87-3.01-1.79-4.59-2.74-.75-.45-1-1.43-.54-2.19,.46-.75,1.44-1,2.19-.54,1.57,.94,3.09,1.85,4.56,2.72,.76,.45,1.01,1.42,.57,2.18-.3,.5-.83,.79-1.38,.79Zm129.6-.49c-.78,0-1.46-.57-1.58-1.37-.13-.87,.48-1.68,1.35-1.81l5.26-.77c.88-.13,1.68,.47,1.81,1.35,.13,.87-.47,1.68-1.35,1.81l-5.27,.77c-.08,.01-.16,.02-.23,.02Zm10.53-1.54c-.78,0-1.46-.57-1.58-1.36-.13-.87,.47-1.68,1.35-1.81l5.26-.78c.87-.13,1.68,.47,1.81,1.34,.13,.87-.47,1.68-1.34,1.81l-5.27,.78c-.08,.01-.16,.02-.23,.02Zm10.55-1.56c-.78,0-1.46-.57-1.58-1.36-.13-.87,.47-1.68,1.34-1.81l5.27-.79c.88-.13,1.68,.47,1.81,1.34,.13,.87-.47,1.68-1.34,1.81l-5.27,.79c-.08,.01-.16,.02-.24,.02Zm10.52-1.58c-.78,0-1.46-.57-1.57-1.36-.13-.87,.47-1.68,1.34-1.81l5.26-.79c.87-.13,1.68,.47,1.81,1.34,.13,.87-.47,1.68-1.34,1.81l-5.26,.79c-.08,.01-.16,.02-.24,.02Zm-170.33-.33c-.28,0-.57-.08-.83-.24-1.48-.91-2.99-1.85-4.53-2.81-.75-.47-.97-1.45-.51-2.2,.46-.75,1.45-.97,2.2-.51,1.54,.96,3.04,1.89,4.52,2.8,.75,.46,.98,1.44,.52,2.19-.3,.49-.82,.76-1.36,.76Zm180.85-1.26c-.77,0-1.45-.57-1.57-1.36-.13-.87,.47-1.68,1.34-1.82l5.26-.8c.87-.13,1.68,.47,1.82,1.34,.13,.87-.47,1.68-1.34,1.82l-5.26,.8c-.08,.01-.16,.02-.24,.02Zm10.52-1.6c-.77,0-1.45-.56-1.57-1.35-.13-.87,.46-1.68,1.33-1.82l5.26-.81c.88-.13,1.68,.46,1.82,1.33,.13,.87-.46,1.68-1.33,1.82l-5.26,.81c-.08,.01-.16,.02-.24,.02Zm10.52-1.62c-.77,0-1.45-.56-1.57-1.35-.13-.87,.46-1.68,1.33-1.82l5.26-.81c.87-.13,1.68,.46,1.82,1.33,.13,.87-.46,1.68-1.33,1.82l-5.26,.81c-.08,.01-.16,.02-.24,.02Zm-210.93-1.17c-.29,0-.59-.08-.85-.25-1.48-.93-2.98-1.89-4.5-2.86-.74-.48-.96-1.46-.48-2.2,.48-.74,1.46-.96,2.2-.48,1.52,.97,3.01,1.92,4.48,2.85,.74,.47,.97,1.46,.49,2.2-.3,.48-.82,.74-1.35,.74Zm221.45-.46c-.77,0-1.45-.56-1.57-1.35-.13-.87,.46-1.68,1.33-1.82l5.26-.82c.88-.14,1.69,.46,1.82,1.33,.14,.87-.46,1.69-1.33,1.82l-5.26,.82c-.08,.01-.17,.02-.25,.02Zm10.52-1.64c-.77,0-1.45-.56-1.57-1.35-.14-.87,.46-1.69,1.33-1.82l5.26-.82c.87-.13,1.69,.46,1.82,1.33,.14,.87-.46,1.69-1.33,1.82l-5.26,.82c-.08,.01-.17,.02-.25,.02Zm10.52-1.65c-.77,0-1.45-.56-1.57-1.35-.14-.87,.46-1.69,1.33-1.82l5.26-.83c.88-.14,1.69,.46,1.82,1.33,.14,.87-.46,1.69-1.33,1.82l-5.26,.83c-.08,.01-.17,.02-.25,.02Zm10.52-1.66c-.77,0-1.45-.56-1.57-1.35-.14-.87,.46-1.69,1.33-1.82l5.26-.83c.86-.14,1.69,.45,1.82,1.33,.14,.87-.46,1.69-1.33,1.82l-5.26,.83c-.08,.01-.17,.02-.25,.02Zm-261.98-.34c-.3,0-.6-.08-.86-.26-1.47-.95-2.96-1.92-4.47-2.9-.74-.48-.95-1.47-.47-2.21,.48-.74,1.47-.95,2.21-.46,1.5,.98,2.99,1.94,4.46,2.89,.74,.48,.95,1.46,.47,2.2-.3,.47-.82,.73-1.34,.73Zm272.5-1.33c-.77,0-1.45-.56-1.57-1.34-.14-.87,.45-1.69,1.32-1.83l5.26-.84c.87-.15,1.69,.45,1.83,1.32,.14,.87-.45,1.69-1.32,1.83l-5.27,.84c-.08,.01-.17,.02-.25,.02Zm10.53-1.68c-.77,0-1.45-.56-1.57-1.34-.14-.87,.45-1.69,1.32-1.83l5.27-.84c.86-.14,1.69,.45,1.83,1.32,.14,.87-.45,1.69-1.32,1.83l-5.27,.84c-.08,.01-.17,.02-.25,.02Zm10.55-1.69c-.77,0-1.45-.56-1.57-1.34-.14-.87,.45-1.69,1.32-1.83l5.32-.86c.87-.14,1.69,.45,1.83,1.32,.14,.87-.45,1.69-1.32,1.83l-5.32,.86c-.09,.01-.17,.02-.26,.02Zm-302.51-1.11c-.3,0-.6-.08-.87-.26-1.47-.96-2.95-1.94-4.45-2.93-.73-.49-.94-1.47-.45-2.21,.48-.74,1.47-.94,2.21-.45,1.49,.99,2.97,1.96,4.44,2.92,.74,.48,.94,1.47,.46,2.21-.31,.47-.82,.72-1.33,.72Zm-8.88-5.87c-.3,0-.61-.09-.88-.27-1.47-.98-2.95-1.96-4.43-2.95-.73-.49-.93-1.48-.44-2.21,.49-.73,1.48-.93,2.21-.44,1.48,.99,2.96,1.97,4.42,2.95,.73,.49,.93,1.48,.45,2.21-.31,.46-.81,.71-1.33,.71Zm-8.85-5.91c-.3,0-.61-.09-.89-.27l-4.42-2.97c-.73-.49-.92-1.48-.43-2.21,.49-.73,1.48-.93,2.21-.43l4.41,2.97c.73,.49,.93,1.48,.43,2.21-.31,.46-.81,.71-1.33,.71Zm-8.82-5.95c-.31,0-.62-.09-.89-.27l-4.41-2.99c-.73-.5-.92-1.49-.42-2.21,.5-.73,1.49-.92,2.21-.42l4.4,2.98c.73,.49,.92,1.48,.43,2.21-.31,.46-.81,.7-1.32,.7Zm-8.8-5.98c-.31,0-.62-.09-.9-.28l-4.39-3c-.73-.5-.91-1.49-.42-2.22,.5-.73,1.49-.91,2.22-.42l4.38,2.99c.73,.5,.92,1.49,.42,2.22-.31,.45-.81,.7-1.32,.7Zm-8.78-6c-.31,0-.62-.09-.9-.28l-4.4-3.02c-.72-.5-.91-1.49-.41-2.22,.5-.73,1.49-.91,2.22-.41l4.39,3.02c.73,.5,.91,1.49,.41,2.22-.31,.45-.81,.69-1.32,.69Zm-8.78-6.04c-.31,0-.63-.09-.9-.28l-4.38-3.02c-.72-.5-.91-1.49-.41-2.22,.5-.73,1.5-.9,2.22-.4l4.38,3.02c.72,.5,.91,1.49,.41,2.22-.31,.45-.81,.69-1.31,.69Zm-8.75-6.05c-.31,0-.63-.09-.91-.28l-4.37-3.03c-.72-.5-.9-1.5-.4-2.22,.5-.72,1.5-.9,2.22-.4l4.37,3.03c.72,.5,.9,1.5,.4,2.22-.31,.45-.81,.69-1.31,.69Zm-8.74-6.07c-.31,0-.63-.09-.91-.29l-4.37-3.04c-.72-.5-.9-1.5-.4-2.22,.5-.72,1.5-.9,2.22-.4l4.37,3.04c.72,.5,.9,1.5,.4,2.22-.31,.45-.81,.68-1.31,.68Zm-8.73-6.09c-.32,0-.63-.09-.91-.29l-4.33-3.03c-.72-.5-.91-1.51-.41-2.23,.51-.72,1.48-.91,2.21-.4l4.36,3.05c.72,.5,.9,1.5,.39,2.22-.31,.44-.8,.68-1.31,.68Zm-8.72-6.1c-.32,0-.64-.09-.91-.29l-4.36-3.06c-.72-.51-.89-1.5-.39-2.22,.51-.72,1.5-.89,2.22-.39l4.36,3.06c.72,.51,.9,1.5,.39,2.22-.31,.44-.8,.68-1.31,.68Zm-8.71-6.12c-.32,0-.64-.09-.92-.29l-4.35-3.06c-.72-.51-.89-1.5-.39-2.22,.51-.72,1.5-.89,2.22-.39l4.35,3.06c.72,.51,.89,1.5,.39,2.22-.31,.44-.8,.68-1.31,.68Zm-8.71-6.13c-.32,0-.64-.09-.92-.29l-4.35-3.07c-.72-.51-.89-1.5-.38-2.22,.51-.72,1.5-.89,2.22-.38l4.35,3.07c.72,.51,.89,1.5,.38,2.22-.31,.44-.8,.68-1.3,.68Zm-8.7-6.14c-.32,0-.64-.09-.92-.29l-4.35-3.07c-.72-.51-.89-1.5-.38-2.22,.51-.72,1.5-.89,2.22-.38l4.35,3.07c.72,.51,.89,1.5,.38,2.22-.31,.44-.8,.67-1.3,.67Zm-8.7-6.15c-.32,0-.64-.09-.92-.29l-4.35-3.08c-.72-.51-.89-1.5-.38-2.22,.51-.72,1.51-.89,2.22-.38l4.35,3.08c.72,.51,.89,1.5,.38,2.22-.31,.44-.8,.67-1.3,.67Zm-8.7-6.16c-.32,0-.64-.1-.92-.29l-4.35-3.08c-.72-.51-.89-1.5-.38-2.22,.51-.72,1.51-.89,2.22-.38l4.35,3.08c.72,.51,.89,1.5,.38,2.22-.31,.44-.8,.67-1.3,.67Zm-8.71-6.16c-.32,0-.64-.09-.92-.29l-4.36-3.08c-.72-.51-.89-1.5-.39-2.22,.51-.72,1.5-.89,2.22-.39l4.36,3.08c.72,.51,.89,1.5,.38,2.22-.31,.44-.8,.67-1.3,.67Zm-8.74-6.15c-.32,0-.63-.09-.91-.29-2-1.39-3.48-2.42-4.39-3.02-.73-.49-.93-1.48-.45-2.21,.49-.73,1.48-.93,2.21-.45,.92,.61,2.43,1.65,4.45,3.06,.72,.5,.9,1.5,.39,2.22-.31,.44-.8,.68-1.31,.68Z"/>
          <path class="uuid-0128713f-6a6c-4249-b479-db80f17cf82a" d="M1339.77,388.18s2.99,95.23,1.49,96.72-18.3-10.83-18.3-10.83c0,0-1.96-75.94-.37-80.66,1.58-4.72,17.18-5.23,17.18-5.23Z"/>
          <path class="uuid-0128713f-6a6c-4249-b479-db80f17cf82a" d="M1527.56,469.79s-72.95-60.07-84.19-62.98c0,0,73.67,16.65,130.7,32.88,57.02,16.23,298.44,12.9,298.44,12.9v24.14l-344.95-6.95"/>
        </g>
      </g>
      <g>
        <path class="uuid-eeab5766-6602-4a32-b7aa-ca1fbbe577f2" d="M1874.3,524.8s5.8-9.26,16.65-10.77,14.37,0,14.37,0c0,0,29.12,78.9,23.83,80.57-5.28,1.67-17.23,1.95-20.85-1.39-3.61-3.34-31.03-41.48-31.03-41.48,0,0,1.77-20.63-2.98-26.93Z"/>
        <g class="uuid-8b2baeca-b037-4da3-9687-7dd69ce598a5">
          <path class="uuid-0128713f-6a6c-4249-b479-db80f17cf82a" d="M1882.48,562.23s7.74-8.82,11.46-8.62c2.31,.12,3.3,1.71,3.72,2.9,.26,.74,.08,1.57-.43,2.16-2.17,2.48-8.47,9.52-9.85,9.18-1.67-.42-4.9-5.62-4.9-5.62Z"/>
          <path class="uuid-0128713f-6a6c-4249-b479-db80f17cf82a" d="M1890.27,573.66s7.74-8.82,11.46-8.62c2.31,.12,3.3,1.71,3.72,2.9,.26,.74,.08,1.57-.43,2.16-2.17,2.48-8.47,9.52-9.85,9.18-1.67-.42-4.9-5.62-4.9-5.62Z"/>
          <path class="uuid-0128713f-6a6c-4249-b479-db80f17cf82a" d="M1897.42,512.08s27.32,81.76,27.13,85.18c0,0,9.11-.57,9.11-2.85s-22.39-81.95-25.23-82.33-11,0-11,0Z"/>
        </g>
      </g>
      <g>
        <path class="uuid-e0924c22-8321-4bfb-9d36-524a1b3baf30" d="M1866.81,439.17s33.54,4.66,34.17,6.34c.63,1.68,.75,24.31,.75,24.31l-34.92,.06v-30.72Z"/>
        <g>
          <path class="uuid-eeab5766-6602-4a32-b7aa-ca1fbbe577f2" d="M1899.59,444.84s3.95-9.92,15.48-10.55c11.54-.63,38.53,13.73,40.93,14.74,2.41,1.01,34.91,9.76,35.48,10.05,6.95,3.52,.76,11.82,.76,11.82l-90.53-1.07-2.13-24.99Z"/>
          <g class="uuid-1bab6931-e13e-411a-b7ee-79b2655cff57">
            <path class="uuid-0128713f-6a6c-4249-b479-db80f17cf82a" d="M1908.84,434.27c1.1,1.02,40.02,19.52,45.8,20.26,5.78,.75,41.39,10.33,41.39,10.33,0,0,1.92-4.87-1.24-6.7-3.17-1.83-37.56-10.04-40.3-11.57-2.74-1.52-35.91-14.91-38.65-14.46-2.74,.46-7,2.12-7,2.12Z"/>
            <path class="uuid-0128713f-6a6c-4249-b479-db80f17cf82a" d="M1918.67,471.66c.71-2.57,3.26-14.97,5.19-15.4,1.94-.43,6.64,.86,6.5,1.57-.14,.71-1.14,14.26-4.28,14.26s-7.41-.43-7.41-.43Z"/>
            <path class="uuid-0128713f-6a6c-4249-b479-db80f17cf82a" d="M1937.1,475.23c.71-2.57,3.26-14.97,5.19-15.4s6.64,.86,6.5,1.57c-.14,.71-1.14,14.26-4.28,14.26s-7.41-.43-7.41-.43Z"/>
          </g>
        </g>
      </g>
    </g>
  </g>
</svg>